<?xml version="1.0" encoding="UTF-8"?>
<svg width="16px" height="16px" viewBox="0 0 16 16" version="1.1" xmlns="http://www.w3.org/2000/svg" xmlns:xlink="http://www.w3.org/1999/xlink">
    <title>A138605E-1BD5-434D-9BF9-FD41F18F43A2</title>
    <g id="Page-1" stroke="none" stroke-width="1" fill="none" fill-rule="evenodd">
        <g id="airport" transform="translate(-56.000000, -335.000000)" fill="#286BF9" fill-rule="nonzero">
            <g id="thumb" transform="translate(30.000000, 236.000000)">
                <g id="direction" transform="translate(26.000000, 99.000000)">
                    <path d="M0.234098992,8.56524994 L7.41671355,15.7654913 C7.72792285,16.0775017 8.23673804,16.0783018 8.54794734,15.7670913 L15.7649629,8.56685 C15.9154341,8.41675814 16,8.21296175 16,8.00043101 C16,7.78790027 15.9154341,7.58410388 15.7649629,7.43401203 L8.54794734,0.233770694 C8.3978126,0.083804432 8.19420155,-0.00029854964 7.98199866,7.96361292e-07 C7.76979578,0.000301743602 7.56642346,0.0849803757 7.41671355,0.235370747 L0.234098992,7.43561208 C0.0842149579,7.58536609 0,7.78855451 0,8.00043101 C0,8.21230751 0.0842149579,8.41549593 0.234098992,8.56524994 M5.59985928,6.40037738 L9.59997877,6.40037738 L9.59997877,4.80032375 L12.0000505,7.2004042 L9.59997877,9.60048464 L9.59997877,8.00043101 L7.19990707,8.00043101 L7.19990707,11.2005383 L5.59985928,11.2005383 L5.59985928,6.40037738 Z"></path>
                </g>
            </g>
        </g>
    </g>
</svg>